# xmcd CD database file
#
# Track frame offsets:
#	150
#	20555
#	45976
#	54533
#	74794
#	94408
#	107738
#	126058
#	141360
#	159287
#	175729
#	193974
#	208221
#	229791
#
# Disc length: 3275 seconds
#
# Revision: 0
# Processed by: cddbd v1.5.1PL2 Copyright (c) Steve Scherf et al.
# Submitted via: CDex 1.51
#
DISCID=cf0cc90e
DTITLE=Mike Hatchard and Herbie Flowers - Christmas Jazz
DYEAR=2005
DGENRE=Jazz
TTITLE0=Away In a Manger
TTITLE1=Jesu, Joy of Man's desiring
TTITLE2=Deck the Hall
TTITLE3=O come, all ye faithful
TTITLE4=Silent Night
TTITLE5=I saw three ships
TTITLE6=Jingle Bells
TTITLE7=God rest ye merry gentlemen
TTITLE8=The first nowell
TTITLE9=What child is this
TTITLE10=The holly and the ivy
TTITLE11=O little town of Bethlehem
TTITLE12=Ding dong, merrily on high
TTITLE13=Good King Wenceslas
EXTD=YEAR: 2005
EXTT0=
EXTT1=
EXTT2=
EXTT3=
EXTT4=
EXTT5=
EXTT6=
EXTT7=
EXTT8=
EXTT9=
EXTT10=
EXTT11=
EXTT12=
EXTT13=
PLAYORDER=
